<?xml version="1.0" encoding="utf-8"?>
<!-- Generator: Adobe Illustrator 19.0.0, SVG Export Plug-In . SVG Version: 6.00 Build 0)  -->
<svg version="1.1" id="图层_1" xmlns="http://www.w3.org/2000/svg" xmlns:xlink="http://www.w3.org/1999/xlink" x="0px" y="0px"
	 viewBox="0 0 532 95.9" style="enable-background:new 0 0 532 95.9;" xml:space="preserve">
<style type="text/css">
	.st0{clip-path:url(#SVGID_2_);fill:#47A4C7;}
	.st1{clip-path:url(#SVGID_2_);fill:#0075A4;}
	.st2{clip-path:url(#SVGID_2_);fill:#00A0AA;}
</style>
<g>
	<defs>
		<rect id="SVGID_1_" y="0" width="532" height="95.9"/>
	</defs>
	<clipPath id="SVGID_2_">
		<use xlink:href="#SVGID_1_"  style="overflow:visible;"/>
	</clipPath>
	<path class="st0" d="M45.4,21.1c4.5,1.2,3.4,4.9-2.4,8.3c-5.9,3.4-14.3,5.2-18.8,4c-4.5-1.2-3.4-4.9,2.4-8.3
		C32.4,21.8,40.9,19.9,45.4,21.1"/>
	<path class="st0" d="M74.4,6.8c3.8,1.1,2.9,4.4-1.9,7.3c-4.8,2.9-11.7,4.4-15.5,3.3c-3.8-1.1-2.9-4.4,1.9-7.3
		C63.8,7.2,70.7,5.7,74.4,6.8"/>
	<path class="st0" d="M101.3,0.3c2.8,0.8,2.2,3.3-1.4,5.5C96.3,7.9,91.1,9,88.4,8.2c-2.8-0.8-2.2-3.3,1.4-5.4
		C93.3,0.5,98.5-0.5,101.3,0.3"/>
	<path class="st1" d="M45.6,61.5c7.1,1.8,5.4,7.7-3.8,13c-9.2,5.4-22.5,8.2-29.7,6.4c-7.1-1.8-5.4-7.7,3.8-13
		C25.2,62.5,38.5,59.7,45.6,61.5"/>
	<path class="st2" d="M29.2,43c5.5,1.4,4.2,5.9-2.9,10C19.1,57.2,8.9,59.4,3.4,58c-5.5-1.4-4.2-5.9,2.9-10.1
		C13.5,43.8,23.7,41.6,29.2,43"/>
	<path class="st2" d="M129.3,1.4c3.6,1.2,2.8,4.4-1.7,7.3c-4.5,2.9-11,4.3-14.6,3.1c-3.6-1.1-2.8-4.4,1.7-7.3
		C119.2,1.7,125.8,0.3,129.3,1.4"/>
	<path class="st1" d="M110,58.2c10.3,3.3,7.6,12.1-5.9,19.7C90.5,85.4,71.3,88.9,61,85.7c-10.3-3.3-7.6-12.1,5.9-19.7
		C80.4,58.4,99.7,54.9,110,58.2"/>
	<path class="st1" d="M148.2,33.5c6.3,2,5,7.6-3.1,12.7c-8.1,5-19.7,7.5-26.1,5.5c-6.4-2-5-7.6,3.1-12.7
		C130.2,34,141.8,31.5,148.2,33.5"/>
	<path class="st2" d="M152.1,11c4.6,1.6,3.7,5.9-2,9.7c-5.7,3.7-14,5.5-18.5,3.9c-4.6-1.6-3.6-5.9,2-9.7
		C139.3,11.1,147.5,9.3,152.1,11"/>
	<path class="st1" d="M201.3,47.3c-2.2-1.6-5.2-2.5-9.1-2.5h-13.7v1.6h0.5c0.8,0,1.3,0.2,1.5,0.6c0.2,0.4,0.4,5.8,0.4,16.3
		c0,6-0.1,12.2-0.3,18.4l7.8-0.1V80h-0.5c-0.8,0-1.4-0.2-1.6-0.7c-0.1-2.5-0.2-4.9-0.2-7v-7.1h4.5c9.4,0,14-3.6,14-10.9
		C204.6,51.2,203.5,48.9,201.3,47.3 M188.9,62.8c-1.2,0-2.2,0-2.9-0.1v-4.6c0-3.6,0.1-7.3,0.3-10.9c0.9-0.1,1.8-0.1,2.7-0.1
		c6.5,0,9.7,2.5,9.7,7.6C198.8,60.1,195.5,62.8,188.9,62.8 M229.1,80h-0.5c-0.9,0-1.4-0.3-1.6-1c-0.1-0.3-0.2-1.2-0.2-2.6V64.8
		c0-3.2-0.7-5.5-2-7c-1.4-1.5-3.6-2.3-6.7-2.3c-3.9,0-7.1,1.1-9.6,3.2v5.1h1.6c0.4-1.7,1.3-3.1,2.5-4.3c1.2-1.2,2.6-1.9,4.2-1.9
		c3.5,0,5.3,2.4,5.3,7.3v0.8c-0.5,0.4-1.5,0.7-2.9,1c-1.8,0.4-3.7,0.7-5.5,1.1c-2.1,0.5-3.7,1.2-4.8,2.2c-1.4,1.2-2.1,3-2.1,5.2
		c0,2.2,0.7,3.9,2.1,5.1c1.4,1.2,3.3,1.8,5.7,1.8c2.6,0,5.1-1.1,7.5-3.2l0.5,2.8h6.5V80z M221.3,76.7c-1.8,1.8-3.4,2.7-4.8,2.7
		c-2.9,0-4.4-1.5-4.4-4.4c0-1.8,0.8-3.2,2.3-4.3c1.5-1.1,4-1.9,7.6-2.5v6.7C222,75.6,221.7,76.2,221.3,76.7 M251.3,56.2
		c-1.1-0.4-2.2-0.6-3.3-0.6c-2.5,0-4.9,2-7.2,5.9c0-1.2-0.1-3-0.3-5.3H234v1.6h0.5c0.7,0,1.2,0.1,1.6,0.4c0.1,1.4,0.2,3.5,0.2,6v9.6
		c-0.1,3.5-0.2,6.1-0.3,7.9h6h1.1V80h-0.5c-1,0-1.5-0.3-1.7-0.8c-0.1-2.1-0.1-5.5-0.1-10.3c0-3.2,0.7-5.7,2-7.4
		c1.1-1.4,2.5-2.1,4.3-2.1c1.5,0,2.3,0.8,2.3,2.5v0.5h1.8V56.2z M279,80h-0.8c-0.3,0-0.7-0.1-1.2-0.4c-1.8-2-3.7-4.2-5.6-6.8
		c-1-1.3-2.6-3.5-5-6.7c5.2-4.9,9.1-8.2,11.6-9.9h-5.8c-1.3,1.6-3,3.5-5.1,5.7c-1.8,1.8-3.6,3.6-5.3,5.5c4.5,6.2,7.8,10.9,10,14
		l0.2,0.3h6.8V80z M263.8,80h-0.5c-1,0-1.6-0.4-1.8-1.2c-0.1-2.3-0.2-4.7-0.2-7.1V61.1c0-5.7,0.1-12.3,0.3-19.8h-7.5V43h0.5
		c1,0,1.6,0.5,1.8,1.4c0.1,5,0.2,10.7,0.2,17.1c0,2.2,0,5.6-0.1,10.1c-0.1,4.5-0.1,7.9-0.1,10.1h7.3V80z M313,56.1v1.6h0.5
		c0.8,0,1.3,0.2,1.6,0.7c-1.3,4.5-3.5,9.9-6.4,16.2c-2.9-7.7-4.9-13.9-6.2-18.5H296v1.6h0.5c0.9,0,1.5,0.3,1.7,1
		c-1.9,6.4-3.8,11.7-5.7,15.9c-3.5-9.2-5.7-15.4-6.4-18.5h-6.6v1.6h0.5c0.5,0,0.8,0.1,1.1,0.2c1.8,4.3,3.2,7.7,4.1,10.2
		c2.3,6,3.9,10.5,4.6,13.6l3.7,0.1c1.3-5.2,3.4-11.3,6.2-18.2c2.1,5.5,3.5,9.5,4.4,12.2c0.8,2.4,1.3,4.5,1.6,6.1h3.9
		c0.9-3.2,2.5-7.7,4.9-13.5c2.4-5.4,4.2-9.5,5.5-12.2H313z M344.9,80h-0.5c-0.9,0-1.4-0.3-1.6-1c-0.1-0.3-0.2-1.2-0.2-2.6V64.8
		c0-3.2-0.7-5.5-2-7c-1.3-1.5-3.6-2.3-6.7-2.3c-3.9,0-7.1,1.1-9.6,3.2v5.1h1.6c0.4-1.7,1.3-3.1,2.5-4.3c1.2-1.2,2.6-1.9,4.2-1.9
		c3.5,0,5.3,2.4,5.3,7.3v0.8c-0.5,0.4-1.5,0.7-2.9,1c-1.8,0.4-3.7,0.7-5.5,1.1c-2.1,0.5-3.7,1.2-4.8,2.2c-1.4,1.2-2.1,3-2.1,5.2
		c0,2.2,0.7,3.9,2.1,5.1c1.4,1.2,3.3,1.8,5.7,1.8c2.6,0,5.1-1.1,7.5-3.2l0.5,2.8h6.5V80z M337.1,76.7c-1.8,1.8-3.4,2.7-4.8,2.7
		c-2.9,0-4.4-1.5-4.4-4.4c0-1.8,0.8-3.2,2.3-4.3c1.5-1.1,4.1-1.9,7.6-2.5v6.7C337.8,75.6,337.5,76.2,337.1,76.7 M366.4,56.1v1.6h0.5
		c0.5,0,0.9,0.1,1.1,0.2c-0.8,2.8-1.8,5.8-3.1,9c-0.1,0.2-1.3,3-3.6,8.3c-3.9-9.6-6.3-16-7.2-19.1h-7v1.6h0.5c0.4,0,0.8,0.1,1,0.2
		c4.1,9,6.6,14.8,7.6,17.4l2.2,5.6l-1.2,2.6c-1.9,4.3-4,8.4-6.3,12.4h5.1c0.5-1.9,1.2-4.1,2.2-6.4c0.5-1.2,1.4-3.3,2.6-6.2l7-15.9
		c2-4.5,3.7-8.2,5.3-11.2H366.4z M414,47.3c-2.2-1.6-5.2-2.5-9.1-2.5h-13.7v1.6h0.5c0.8,0,1.3,0.2,1.5,0.6c0.2,0.4,0.3,5.8,0.3,16.3
		c0,6-0.1,12.2-0.3,18.4l7.8-0.1V80h-0.5c-0.8,0-1.4-0.2-1.6-0.7c-0.1-2.5-0.2-4.9-0.2-7v-7.1h4.5c9.4,0,14-3.6,14-10.9
		C417.3,51.2,416.2,48.9,414,47.3 M401.7,62.8c-1.2,0-2.1,0-2.9-0.1v-4.6c0-3.6,0.1-7.3,0.3-10.9c0.9-0.1,1.8-0.1,2.7-0.1
		c6.5,0,9.7,2.5,9.7,7.6C411.5,60.1,408.2,62.8,401.7,62.8 M441.8,80h-0.5c-0.9,0-1.4-0.3-1.6-1c-0.1-0.3-0.2-1.2-0.2-2.6V64.8
		c0-3.2-0.7-5.5-2-7c-1.4-1.5-3.6-2.3-6.7-2.3c-3.9,0-7.1,1.1-9.6,3.2v5.1h1.6c0.4-1.7,1.3-3.1,2.5-4.3c1.2-1.2,2.6-1.9,4.2-1.9
		c3.5,0,5.3,2.4,5.3,7.3v0.8c-0.5,0.4-1.5,0.7-2.9,1c-1.8,0.4-3.7,0.7-5.5,1.1c-2.1,0.5-3.7,1.2-4.8,2.2c-1.4,1.2-2.1,3-2.1,5.2
		c0,2.2,0.7,3.9,2.1,5.1c1.4,1.2,3.3,1.8,5.7,1.8c2.6,0,5.1-1.1,7.5-3.2l0.5,2.8h6.5V80z M434,76.7c-1.8,1.8-3.4,2.7-4.8,2.7
		c-2.9,0-4.4-1.5-4.4-4.4c0-1.8,0.8-3.2,2.3-4.3c1.5-1.1,4-1.9,7.6-2.5v6.7C434.7,75.6,434.5,76.2,434,76.7 M473,80h-0.5
		c-1.2,0-1.8-0.4-1.8-1.2c0-0.6,0-1.5-0.1-2.7c-0.1-1.2-0.1-2.1-0.1-2.7v-4.1v-4.1c0-6.6-2.9-9.9-8.8-9.9c-3.2,0-5.8,1.7-7.8,5.2
		c0-0.7-0.1-2.2-0.4-4.4h-6.8v1.6h0.5c1.1,0,1.7,0.4,1.8,1.2c0.1,2.1,0.2,3.9,0.2,5.6v7.9c0,3.1-0.1,6.1-0.3,9.1h7.1h0.4v-1.7h-0.5
		c-1.1,0-1.7-0.4-1.8-1.2c0-2.7-0.1-4.9-0.1-6.8v-4.5c0-2.4,0.5-4.5,1.5-6c1.2-1.8,2.8-2.8,5-2.8c2.1,0,3.6,0.7,4.3,2
		c0.6,1.1,0.9,3,0.9,5.8c0,7.4-0.1,12.5-0.3,15.3h7h0.5V80z M491.6,77.4c-1.3,1.3-2.4,1.9-3.2,1.9c-1.4,0-2.4-0.4-2.9-1.3
		c-0.5-0.9-0.8-2.5-0.8-4.7c0-1.7,0.1-3.9,0.2-6.6c0.1-2.7,0.2-4.5,0.2-5.5l0.1-2.3h1.3c1.2,0,2.9,0,5.1,0.1v-2.8
		c-2.7,0.2-4.9,0.3-6.5,0.4v-3.2c0-0.5,0.1-2.1,0.2-4.9l-5.1,1.2v5.6v1.2c-0.9,0-2-0.1-3.2-0.2v2.8c1.3-0.1,2.4-0.1,3.2-0.1h0.1v1.3
		c0,2.6-0.1,5.6-0.2,8.8c-0.1,3.2-0.2,5.1-0.2,5.6c0,2.7,0.5,4.6,1.6,5.8c1,1.2,2.8,1.8,5.3,1.8c2.6,0,4.6-1,6.2-2.9L491.6,77.4z
		 M517.6,80h-0.5c-0.9,0-1.4-0.3-1.6-1c-0.1-0.3-0.2-1.2-0.2-2.6V64.8c0-3.2-0.7-5.5-2-7c-1.4-1.5-3.6-2.3-6.7-2.3
		c-3.9,0-7.1,1.1-9.6,3.2v5.1h1.6c0.4-1.7,1.3-3.1,2.5-4.3c1.2-1.2,2.6-1.9,4.2-1.9c3.5,0,5.3,2.4,5.3,7.3v0.8
		c-0.5,0.4-1.5,0.7-2.9,1c-1.8,0.4-3.7,0.7-5.5,1.1c-2.1,0.5-3.7,1.2-4.8,2.2c-1.4,1.2-2.1,3-2.1,5.2c0,2.2,0.7,3.9,2.1,5.1
		c1.4,1.2,3.3,1.8,5.7,1.8c2.6,0,5.1-1.1,7.5-3.2l0.5,2.8h6.5V80z M509.8,76.7c-1.8,1.8-3.4,2.7-4.8,2.7c-2.9,0-4.4-1.5-4.4-4.4
		c0-1.8,0.8-3.2,2.3-4.3c1.5-1.1,4-1.9,7.6-2.5v6.7C510.5,75.6,510.3,76.2,509.8,76.7 M529.4,45.4c-0.6-0.6-1.4-0.9-2.2-0.9
		c-0.9,0-1.6,0.3-2.2,0.9c-0.6,0.6-0.9,1.4-0.9,2.2s0.3,1.6,0.9,2.2c0.6,0.6,1.4,0.9,2.2,0.9c0.9,0,1.6-0.3,2.2-0.9
		c0.6-0.6,0.9-1.4,0.9-2.2S530,46,529.4,45.4 M532,79.9h-0.5c-1,0-1.5-0.3-1.7-0.8c-0.1-3.8-0.2-7.4-0.2-11c0-8,0.1-12,0.3-12h-7.3
		v1.6h0.5c1,0,1.6,0.4,1.8,1.2c0.1,3.1,0.2,6.1,0.2,9.1c0,3.9-0.1,8.3-0.3,13.4h6.9h0.4V79.9z"/>
</g>
</svg>
